<svg width="1024" height="1024" xmlns="http://www.w3.org/2000/svg">
  <!-- Gradient background -->
  <defs>
    <radialGradient id="backgroundGradient" cx="50%" cy="50%" r="50%">
      <stop offset="0%" style="stop-color:#66BB6A;stop-opacity:1" />
      <stop offset="100%" style="stop-color:#4CAF50;stop-opacity:1" />
    </radialGradient>
  </defs>
  
  <!-- Background circle -->
  <circle cx="512.0" cy="512.0" r="512.0" fill="url(#backgroundGradient)" />
  
  <!-- Leaf shape -->
  <path d="M512.0,562.0 
           Q412.0,429.0 362.0,322.0
           Q437.0,202.0 512.0,162.0
           Q587.0,202.0 662.0,322.0
           Q612.0,429.0 512.0,562.0 Z"
        fill="#2E7D32" />
  
  <!-- Central vein -->
  <line x1="512.0" y1="562.0" x2="512.0" y2="162.0" 
        stroke="#1B5E20" stroke-width="4" />
  
  <!-- Side veins -->
  <line x1="512.0" y1="232.0" x2="452.0" y2="212.0" 
        stroke="#1B5E20" stroke-width="3" />
  <line x1="512.0" y1="232.0" x2="572.0" y2="212.0" 
        stroke="#1B5E20" stroke-width="3" />
  
  <line x1="512.0" y1="302.0" x2="432.0" y2="282.0" 
        stroke="#1B5E20" stroke-width="3" />
  <line x1="512.0" y1="302.0" x2="592.0" y2="282.0" 
        stroke="#1B5E20" stroke-width="3" />
  
  <line x1="512.0" y1="372.0" x2="422.0" y2="352.0" 
        stroke="#1B5E20" stroke-width="3" />
  <line x1="512.0" y1="372.0" x2="602.0" y2="352.0" 
        stroke="#1B5E20" stroke-width="3" />
  
  <line x1="512.0" y1="442.0" x2="452.0" y2="422.0" 
        stroke="#1B5E20" stroke-width="3" />
  <line x1="512.0" y1="442.0" x2="572.0" y2="422.0" 
        stroke="#1B5E20" stroke-width="3" />
</svg>
